<?xml version="1.0" encoding="utf-8"?>
<!-- Designed by Vexels.com - 2019 All Rights Reserved - https://vexels.com/terms-and-conditions/  -->
<svg version="1.1" id="Layer_1" xmlns="http://www.w3.org/2000/svg" xmlns:xlink="http://www.w3.org/1999/xlink" x="0px" y="0px"
	 viewBox="0 0 1200 1200" enable-background="new 0 0 1200 1200" xml:space="preserve">
<g>
	<path fill="#BECEE5" d="M1082.683,203.844c-6.518-7.424-28.81-5.907-53.063-3.524c-5.206,0.511-9.703,0.955-12.268,0.988
		c-93.702,1.283-204.295,3.211-314.106,7.808c-54.48,2.282-104.903,5.027-154.133,8.394l-27.609,1.898
		c-14.722,1.011-29.444,2.025-44.166,3.017c-2.245,0.149-5.176,0.183-8.51,0.22c-15.169,0.168-35.947,0.403-42.428,10.404
		c-0.552,0.854-0.477,1.201,0.776,6.988c0.425,1.999,1.081,5.015,1.104,5.597c0.037,6.041-0.53,12.328-1.089,18.406
		c-0.485,5.385-0.992,10.952-1.089,16.415c-0.216,12.66-0.082,25.521,0.052,37.957c0.142,12.541,0.283,25.506,0.052,38.252
		c-0.492,27.639-1.328,55.733-2.14,82.906c-0.701,23.493-1.402,46.985-1.902,70.481c-0.641,30.387-0.738,57.821-0.291,83.872
		c0.06,3.464,0.075,6.955,0.082,10.456c0.03,8.312,0.052,16.907,0.746,25.249c0.216,2.666,0.447,4.658,0.619,6.19
		c0.462,4.087,0.747,9.931-0.096,10.804c-0.721,1.407-3.333,3.255-6.88,5.273c3.572,2.093,7.235,4.051,10.938,5.95
		c6.109,1.489,8.908,2.768,16.614,2.778c12.007,0.015,24.402,0.03,34.262,4.523c-2.953,4.475-3.707,8.558-2.237,12.156
		c0.968,2.363,2.873,4.289,5.315,5.919c1.717,0.886,3.434,1.771,5.127,2.696c7.981,3.287,18.688,4.734,26.84,5.824
		c2.29,0.306,4.296,0.57,5.825,0.839c23.567,4.068,51.542,8.741,80.404,12.522c22.896,2.998,46.209,5.731,68.755,8.375
		c31.898,3.74,64.869,7.603,97.184,12.287c20.465,2.965,41.25,6.239,61.349,9.408c31.047,4.892,63.146,9.949,94.843,13.991
		c11.463,1.477,20.129-1.134,28.489-3.654c6.824-2.047,13.394-4.005,21.128-3.822c11.291,0.231,22.172,3.64,33.695,7.245
		c8.815,2.759,17.877,5.597,27.147,6.865c-0.177,0.112-0.347,0.24-0.524,0.352c10.478,1.359,20.965,2.624,31.467,3.715
		c5.097-15.08,6.162-36.108,4.975-74.157c-0.265-8.508-1.052-16.519-0.932-23.239c1.939-110.527,5.161-201.946,10.128-287.698
		c1.954-33.859,1.932-67.975,1.917-100.969c-0.007-9.229-0.015-18.477,0.022-27.751c0.015-4.195,1.268-11.027,2.469-17.634
		C1083.966,215.136,1085.323,206.846,1082.683,203.844z M731.518,225.506c9.076,0,16.02,3.475,19.555,9.789
		c3.908,6.984,3.177,16.821-1.872,25.055c-5.452,8.901-14.759,14.114-25.066,14.114c-0.403,0-0.805-0.007-1.208-0.022
		c-14.588-0.574-23.172-7.525-22.956-18.585C700.247,242.107,714.372,225.506,731.518,225.506z M1011.325,555.617
		c-0.641,17.884-1.589,36.081-2.506,53.679c-0.955,18.324-1.947,37.271-2.588,55.894c-0.006,0.16-0.02,0.395-0.027,0.567
		c-3.593-0.64-6.601-1.132-7.796-1.387c-0.261-0.227-0.716-0.369-1.514-0.481l-3.035-0.261c-0.433-0.026-0.91-0.056-1.424-0.089
		c-0.761-0.045-1.454-0.09-2.088-0.127c-31.629-1.984-63.989-7.551-95.283-12.936c-18.466-3.177-37.558-6.462-56.218-8.957
		c-42.026-5.623-84.513-12.473-125.592-19.1l-28.653-4.609c-24.305-3.882-49.103-7.081-73.088-10.173
		c-23.947-3.084-48.708-6.276-72.961-10.154c-3.818-0.608-8.04-1.413-12.507-2.263c-15.797-3.01-48.293-7.958-67.021-5.958
		c2.839-11.272,3.931-30.245,3.301-57.364l-0.037-1.704c-0.447-27.102,0.626-51.717,1.76-77.775l0.254-5.731
		c0.709-16.266,0.574-32.934,0.44-49.055c-0.179-22.102-0.365-44.953,1.626-67.051c1.589-17.653,1.596-17.66,19.152-17.064
		l1.372,0.048c20.621,0.675,41.123,0.067,58.47-0.623c26.237-1.052,52.467-2.312,78.689-3.572
		c56.964-2.737,115.867-5.567,173.86-6.086l6.474-0.06c36.611-0.332,74.475-0.671,111.668,0.082
		c12.365,0.25,25.118,1.048,37.446,1.816c23.657,1.48,48.089,3.009,71.813,0.861C1017.65,389.838,1014.204,475.257,1011.325,555.617
		z"/>
	<path fill="#82B2D5" d="M516.788,905.959l86.871-60.896l-187.317-56.681l-47.484,8.521c0,0-98.685,50.686-101.895,49.956
		L516.788,905.959z"/>
	<path fill="#BECEE5" d="M1127.58,838.138c0,0-13.692-17.894-46.15-26.203c-12.756-3.266-27.52-1.41-42.212,3.11
		c-30.018,9.214-50.766,31.144-62.893,47.921c-14.081,19.488-45.15,82.407-34.94,115.322c2.879,9.289,8.778,15.583,17.526,18.716
		c8.972,3.214,18.906,4.631,29.347,4.631c42.383,0,93.023-23.37,121.251-44.52c1.685-1.257,3.55-2.987,5.534-4.814
		c2.327-2.155,22.299-24.41,24.29-27.18c1.782-2.465,3.617-5.016,4.84-7.73C1157.456,888.002,1146.374,858.215,1127.58,838.138z"/>
	<g>
		<path fill="#1A3047" d="M1000.78,826.843l0.045,0.048l5.989-5.276c0.388-0.339,0.791-0.694,1.216-1.07
			c1.894-1.667,6.008-3.29,9.509-6.731c43.846-43.091,53.154-39.842,50.401-128.105c-0.265-8.508-1.052-16.519-0.932-23.239
			c1.939-110.527,5.161-201.946,10.128-287.698c1.954-33.859,1.932-67.975,1.917-100.969c-0.007-9.229-0.015-18.477,0.022-27.751
			c0.015-4.195,1.268-11.027,2.469-17.634c2.424-13.283,3.781-21.572,1.141-24.574c-6.518-7.424-28.81-5.907-53.063-3.524
			c-5.206,0.511-9.703,0.955-12.268,0.988c-93.702,1.283-204.295,3.211-314.106,7.808c-54.48,2.282-104.903,5.027-154.133,8.394
			l-27.609,1.898c-14.722,1.011-29.444,2.025-44.166,3.017c-2.245,0.149-5.176,0.183-8.51,0.22
			c-15.169,0.168-35.947,0.403-42.428,10.404c-0.552,0.854-0.477,1.201,0.776,6.988c0.425,1.999,1.081,5.015,1.104,5.597
			c0.037,6.041-0.53,12.328-1.089,18.406c-0.485,5.385-0.992,10.952-1.089,16.415c-0.216,12.66-0.082,25.521,0.052,37.957
			c0.142,12.541,0.283,25.506,0.052,38.252c-0.492,27.639-1.328,55.733-2.14,82.906c-0.701,23.493-1.402,46.985-1.902,70.481
			c-0.641,30.387-0.738,57.821-0.291,83.872c0.06,3.464,0.075,6.955,0.082,10.456c0.03,8.312,0.052,16.907,0.746,25.249
			c0.216,2.666,0.447,4.657,0.619,6.19c0.462,4.087,0.747,9.931-0.096,10.804c-2.662,5.195-30.661,16.321-39.178,20.348
			c-2.409,1.137-4.758,2.249-6.996,3.356c-20.405,10.117-42.883,19.279-72.886,29.698c-18.637,6.474-37.7,12.723-56.128,18.768
			c-31.174,10.221-63.415,20.793-94.626,32.77c-15.885,6.101-31.569,13.141-46.731,19.954c-8.36,3.751-16.728,7.51-25.171,11.138
			c-1.163,0.496-2.7,0.992-4.385,1.536c-6.183,2.002-13.887,4.493-15.237,10.143c-0.887,3.692-0.425,6.403,1.365,8.062
			c3.423,3.173,10.106,0.999,15.095-0.615c1.178-0.38,2.252-0.727,3.229-1.044c0.601-0.194,1.252-0.405,1.892-0.612
			c-0.307,1.749,0.068,3.188,0.584,4.176c3.535,6.817,18.854,9.222,34.239,11.097c2.528,0.31,4.572,0.556,5.78,0.794
			c60.797,11.847,122.601,25.998,182.369,39.68c28.31,6.485,56.591,12.958,84.819,19.212
			c66.525,14.741,133.355,32.826,197.993,50.315c23.507,6.362,47.015,12.723,70.567,18.947c5.012,1.324,10.501,3.248,16.311,5.284
			c11.918,4.173,24.238,8.483,35.134,8.692c0.313,0.007,0.612,0.007,0.917,0.007c7.354,0,11.694-1.771,12.582-5.146
			c0.947-3.58-2.364-7.45-9.844-11.496c-8.181-4.43-19.286-6.432-30.026-8.372c-5.191-0.936-10.098-1.82-14.312-2.927l-9.218-2.424
			c-20.778-5.463-41.563-10.926-62.304-16.542c-109.505-29.664-207.614-53.268-299.712-72.111l5.094-2.73
			c42.495-22.874,79.218-42.622,129.149-31.707c40.608,8.864,81.292,20.356,120.632,31.469c10.411,2.938,20.823,5.881,31.234,8.774
			c-0.522,0.209-1.067,0.421-1.633,0.645c-23.895,9.404-49.327,20.297-48.551,30.57c0.291,3.882,2.193,5.661,3.736,6.466
			c6.66,3.487,19.637-3.561,32.367-11.064c1.984-1.167,3.61-2.129,4.706-2.689c3.602-1.85,7.018-3.315,10.322-4.736
			c5.922-2.539,11.537-4.952,16.43-8.942l0.03,0.019l1.156-1.033c0,0,0,0,0.007,0l-1.274-1.431c-0.002,0.002,0.012-0.017,0.01-0.015
			l0.026-0.031l1.574,1.052c0.716-1.078,6.72-8.543,7.816-9.367l-0.828-1.559l1.894,0.045v-0.011c0-0.13,0-0.261,0-0.388
			l-0.007-1.242l-0.134-0.034c-2.446-12.667-35.88-19.376-67.315-24.682c-5.124-0.865-9.173-1.548-11.306-2.062
			c-14.237-3.431-28.348-7.708-41.996-11.843c-50.804-15.401-98.788-29.936-151.165-2.741
			c-14.804,7.678-29.653,15.084-44.017,22.243c-4.825,2.401-8.159,4.684-10.836,6.515c-6.078,4.158-8.838,6.06-20.233,3.699
			c-38.103-7.909-77.197-16.881-116.195-26.67c-2.081-0.522-5.817-1.853-10.135-3.393c-10.975-3.911-25.112-8.944-36.562-10.332
			c8.264-3.558,16.44-7.258,24.428-10.998c11.336-5.314,23.06-10.803,34.858-15.43c24.805-9.725,50.505-18.462,75.363-26.908
			l10.106-3.442c0.097,0.246,0.216,0.503,0.365,0.761c8.002,14.226,107.723,35.108,189.969,50.121l4.318,0.791
			c54.1,10.165,108.975,21.158,162.054,31.789c37.133,7.439,75.534,15.132,113.346,22.478c23.246,4.516,44.71,9.058,65.6,13.887
			c5.966,1.376,12.298,3.3,19.003,5.336c13.693,4.162,27.855,8.465,40.661,8.588c21.36,0.276,39.005-12.399,56.248-24.585
			c3.953-2.797,7.913-5.594,11.895-8.23c12.634-8.353,25.305-17.097,37.558-25.555c5.071-3.505,10.15-7.007,15.237-10.493
			c0.47-0.321,1.372-0.861,2.558-1.574c11.963-7.186,24.141-15.513,23.776-22.806c-0.134-2.756-1.924-4.967-5.303-6.567
			c-4.393-2.077-14.498,4.732-32.89,18.801c-2.841,2.17-5.131,3.927-6.421,4.792c-6.212,4.188-12.358,8.465-18.496,12.738
			c-11.754,8.189-23.918,16.654-36.365,24.272c-3.296,2.021-7.555,5.109-12.059,8.372c-9.524,6.91-21.382,15.505-27.885,16.512
			c-10.449,1.615-26.602-3.781-40.899-8.532c-6.309-2.096-12.268-4.076-17.153-5.25c-59.097-14.196-105.396-24.428-149.323-32.994
			c2.081-1.768,4.05-3.83,5.974-5.847c4.057-4.255,7.891-8.271,12.097-8.987c2.953-0.492,8.442,1.473,12.85,3.073
			c2.043,0.742,3.915,1.417,5.377,1.805c4.527,1.197,9.069,2.454,13.626,3.71c16.132,4.449,32.815,9.05,49.521,11.351
			c6.57,0.899,18.168,1.037,19.86-4.236c1.432-4.46-5.086-8.498-10.12-11.15c-16.46-8.674-39.855-12.343-60.491-15.58
			c-5.638-0.884-11.038-1.73-16.042-2.636c11.224-8.043,16.78-7.708,32.464-5.504c8.144,1.141,16.132,2.569,24.417,4.363
			c1.439,0.313,3.617,0.925,6.242,1.663c15.99,4.482,32.069,8.375,37.752,2.625c2.461-2.491,2.357-4.769,1.842-6.242
			c-2.648-7.521-24.835-13.525-69.762-18.857c12.604-7.171,24.492-15.14,23.828-21.703c-0.261-2.648-2.342-4.605-6.175-5.825
			c-5.571-1.775-14.7,4.464-24.373,11.56c-1.879,1.376-3.468,2.543-4.572,3.24c-12.32,7.79-16.624,8.812-29.168,7.1
			c10.247-6.362,19.063-12.973,18.406-18.906c-0.298-2.666-2.387-4.665-6.212-5.948c-6.153-2.04-14.767,4.135-23.895,10.691
			c-6.287,4.516-12.783,9.184-16.765,9.546c-15.281,1.38-32.01-3.647-48.193-8.517c-10.21-3.073-20.763-6.25-30.66-7.682
			c-7.003-1.011-20.606-1.41-22.232,4.303c-0.992,3.498,2.715,6.947,11.679,10.855c19.234,8.394,41.936,11.347,63.892,14.2
			c4.035,0.526,8.01,1.044,11.903,1.589c-10.493,6.854-16.78,5.094-25.805,2.573c-5.318-1.484-11.344-3.166-19.458-3.587
			c-0.723-0.037-1.506-0.104-2.319-0.172c-4.266-0.347-9.569-0.787-12.626,2.017c-1.469,1.357-2.215,3.27-2.208,5.683
			c0.007,6.22,10.643,10.844,34.411,14.92c-4.616,4.456-8.36,10.009-6.541,13.931c0.157,0.351,0.358,0.671,0.589,0.966
			c-9.434-1.734-18.876-3.449-28.318-5.153l-24.604-4.411c-22.53-4.031-45.822-8.2-68.688-12.529
			c-10.143-1.92-20.308-3.804-30.481-5.69c-49.394-9.162-100.399-18.626-149.472-32.244c30.346-8.983,60.104-20.67,88.936-31.995
			l1.954-0.764c0.507-0.201,1.417-0.537,2.648-0.996c40.042-14.912,59.171-25.618,60.208-33.699
			c0.201-1.581-0.149-3.886-2.976-5.869c-5.638-3.979-18.578,2.771-33.62,11.355c-3.222,1.838-6.004,3.427-7.57,4.121
			c-11.508,5.079-13.714,9.566-35,14.263c16.393-13.05,37.276-26.296,58.635-37.513c8.092,1.73,10.507,3.37,19.241,3.381
			c12.007,0.015,24.402,0.03,34.262,4.523c-2.953,4.475-3.707,8.558-2.237,12.156c4.094,10.001,24.067,12.671,37.282,14.439
			c2.29,0.306,4.296,0.57,5.825,0.839c23.567,4.068,51.542,8.741,80.404,12.522c22.896,2.998,46.209,5.731,68.755,8.375
			c31.898,3.74,64.869,7.603,97.184,12.287c20.465,2.965,41.25,6.239,61.349,9.408c31.047,4.892,63.146,9.949,94.843,13.991
			c11.463,1.477,20.129-1.134,28.489-3.654c6.824-2.047,13.394-4.005,21.128-3.822c11.291,0.231,22.172,3.639,33.695,7.245
			c8.815,2.759,17.877,5.597,27.147,6.865c-22.888,14.446-44.412,31.939-65.264,48.894c-13.119,10.669-26.692,21.703-40.362,31.767
			c-9.569,7.044-19.115,14.122-28.661,21.199c-26.99,20.002-54.89,40.687-82.873,60.264c-0.455,0.324-1.26,0.85-2.319,1.548
			c-14.506,9.569-31.294,21.613-32.397,29.884c-0.239,1.786,0.231,3.408,1.357,4.687c1.268,1.439,2.953,2.088,4.997,2.088
			c8.442,0,22.821-11.161,37.506-23.742c1.7-1.454,2.968-2.539,3.625-3.043c21.874-16.534,44.39-32.979,66.159-48.879
			c16.989-12.406,33.978-24.809,50.841-37.379c6.212-4.635,12.522-9.378,18.891-14.163c12.883-9.685,25.96-19.498,38.932-28.925
			c-7.919,6.573-15.566,13.895-23.069,21.109c-8.823,8.483-17.153,16.493-25.76,23.202c-12.328,9.602-25.439,19.376-38.11,28.825
			c-39.042,29.108-79.405,59.209-111.325,94.261c-1.171,1.283-2.163,2.409-3.043,3.401c-6.086,6.884-6.086,6.884-20.45,9.054
			c-15.058,2.282-30.175-0.671-46.978-4.452c-21.539-4.855-43.271-11.056-64.295-17.053c-12.089-3.449-24.589-7.018-36.902-10.284
			c-24.38-6.466-48.738-13.022-73.095-19.577c-44.233-11.91-89.98-24.223-135.13-35.768c-38.901-9.949-78.666-19.014-117.127-27.781
			c-30.19-6.884-61.416-14.002-92.009-21.498c-2.312-0.567-6.936-1.883-13.208-3.662c-71.156-20.204-144.833-38.345-151.65-19.685
			c-0.522,1.424-0.365,2.871,0.455,4.18c4.318,6.872,28.571,9.811,55.189,12.447c5.668,0.559,10.143,1.003,12.119,1.38
			c27.065,5.146,54.376,11.567,80.784,17.78c7.973,1.876,15.938,3.748,23.903,5.59c64.824,14.99,133.721,31.577,210.627,50.707
			c64.519,16.049,133.184,33.318,201.081,52.444c10.717,3.02,21.688,6.362,32.293,9.595c24.939,7.603,50.729,15.464,76.429,20.148
			c0.268,0.049,15.96,2.771,31.316,2.771c11.247,0,22.322-1.462,27.035-6.503c1.685-1.809,44.695-32.457,88.093-73.144
			c6.831-6.403,12.224-11.459,14.67-13.473c13.745-11.325,28.042-22.46,41.861-33.225
			C964.28,856.664,982.948,842.125,1000.78,826.843z M506.557,669.168c2.126,0.462,4.616,1.003,7.629,1.465
			c6.899,1.055,13.79,2.085,20.688,3.106c8.308,1.238,16.624,2.45,24.932,3.666c10.657,1.555,21.315,3.114,31.965,4.713
			c11.485,1.727,22.963,3.475,34.441,5.228c24.313,3.707,49.446,7.536,74.207,11.06c7.301,1.037,14.61,2.122,21.926,3.203
			c18.988,2.815,38.625,5.724,58.008,7.797l0.888,0.097c13.036,1.424,25.484,2.036,27.826-3.196c1.745-3.882-3.02-8.185-4.587-9.598
			c-9.196-8.304-33.71-8.879-53.406-9.337c-7.808-0.179-14.55-0.339-18.995-0.947c-34.515-4.74-69.896-9.912-108.163-15.803
			c-17.198-2.651-34.411-5.161-51.631-7.67c-18.772-2.741-37.551-5.478-56.3-8.398c-8.994-1.402-17.996-3.375-26.699-5.28
			c-16.236-3.557-32.994-7.227-50.475-7.357c1.141-3.289,0.746-7.29,0.418-10.68c-0.112-1.07-0.209-2.07-0.239-2.938v-0.007
			c0-0.007,0-0.019,0-0.034c-2.364-65.41-0.485-131.953,1.335-196.304c0.612-21.602,1.216-43.204,1.678-64.802l0.388-19.204
			c0.313-15.777,0.619-31.558,1.074-47.332c0.119-4.091-0.216-9.408-0.559-15.039c-0.835-13.435-1.865-30.156,2.692-38.58
			c3.923-7.249,26.55-8.193,40.072-8.756c3.408-0.142,6.421-0.268,8.726-0.462c21.904-1.823,44.188-3.472,66.249-4.9
			c104.24-6.753,184.137-10.49,259.059-12.112c20.271-0.44,40.638-1.052,61.043-1.667c59.798-1.794,121.617-3.658,181.795-0.984
			c-3.438,23.623-2.043,48.954-0.701,73.472c0.94,17.101,1.909,34.788,1.178,51.43c-0.813,18.526-1.865,37.349-2.879,55.554
			c-1.365,24.511-2.782,49.856-3.64,74.826c-0.85,24.831-1.521,49.666-2.193,74.501c-0.537,19.599-1.067,39.199-1.686,58.795
			c-0.447,14.099-1.283,28.519-2.088,42.469c-1.753,30.257-3.565,61.509-1.596,92.132c-7.786-2.062-16.049-3.285-24.067-4.475
			c-6.988-1.037-14.207-2.107-21.21-3.729c-3.878-0.899-7.831-2.234-11.657-3.52c-7.048-2.379-14.334-4.836-22.023-4.982
			c-0.209-0.004-0.41-0.007-0.619-0.007c-6.958,0-11.135,2.334-15.169,4.594c-2.551,1.428-4.952,2.774-8.107,3.602
			c-11.09,2.909-25.089,0-38.632-2.815c-5.795-1.204-11.261-2.342-16.363-2.991c-28.079-3.561-55.517-7.13-82.41-11.608
			c-44.278-7.372-89.659-12.544-133.557-17.545c-59.686-6.798-121.371-13.827-181.079-26.494
			C497.898,667.277,500.255,667.799,506.557,669.168z M269.998,728.089c0.537-0.168,1.089-0.343,1.656-0.518
			c21.814-6.82,44.874-14.289,66.077-21.949c-2.827,1.171-5.758,2.416-8.763,3.695C310.271,717.264,287.8,726.817,269.998,728.089z
			 M642.276,772.139c8.152-6.522,11.47-6.22,22.874-4.471c-8.674,6.339-11.746,7.178-22.463,5.638
			C642.657,772.893,642.522,772.49,642.276,772.139z M628.136,798.943l-0.097,0.917c-0.283,2.595-0.97,4.299-1.917,4.807
			c-0.992,0.529-2.67-0.116-3.908-0.764l-10.904-2.137c-2.551-0.477-5.101-0.955-7.652-1.428c0.38-0.06,0.768-0.127,1.163-0.201
			c3.14-0.6,5.728-2.662,8.226-4.654c1.678-1.339,3.267-2.603,4.84-3.274c9.166-3.923,11.261-3.721,20.405-2.435
			c-0.716,0.716-1.424,1.451-2.125,2.174"/>
		<path fill="#1A3047" d="M908.823,792.503l-1.663-0.548l-0.022,0.052c-14.312-6.623-30.123-9.483-45.479-12.261
			c-4.206-0.761-8.39-1.518-12.514-2.346c-2.431-0.489-5.534-1.413-8.823-2.387c-9.695-2.879-21.77-6.459-29.578-2.991
			c-5.101,2.271-9.651,8.04-11.314,14.36c-1.35,5.101-0.664,9.837,1.917,13.331c4.281,5.769,17.795,7.883,27.661,9.427
			c2.834,0.448,5.28,0.824,6.921,1.219c14.789,3.542,29.936,6.563,44.106,9.296c1.223,0.235,2.424,0.485,3.595,0.727
			c4.109,0.854,8.099,1.678,12.074,1.678c3.341,0,6.682-0.585,10.083-2.23c2.603-1.264,15.953-12.101,14.759-19.282
			c-0.321-1.932-1.73-4.341-6.556-5.127C912.246,793.76,908.875,792.522,908.823,792.503z M895.794,805.189l-0.052,0.019
			c-24.992-6.324-51.363-11.235-76.899-15.99l-0.06-0.011c13.506-4.475,62.975,10.464,77.891,15.863
			C896.324,805.074,896.018,805.115,895.794,805.189z"/>
		<path fill="#1A3047" d="M1034.087,287.198c-2.722-1.521-11.053-0.414-23.455,1.462c-4.751,0.716-9.233,1.395-11.097,1.41
			c-14.588,0.175-29.451-0.641-43.838-1.387c-9.777-0.507-19.883-1.033-29.817-1.272c-49.006-1.186-102.8-0.947-169.273,0.761
			c-59.261,1.514-117.858,4.132-172.353,6.735c-6.757,0.321-13.566,0.746-20.405,1.171c-18.168,1.137-36.947,2.323-55.122,1.507
			c-3.095-0.134-7.376-0.817-11.918-1.536c-14.416-2.297-32.367-5.15-40.653,3.561c-10.217,10.766-8.487,40.224-7.219,61.733
			c0.328,5.642,0.619,10.512,0.619,14.103c0.007,26.834-0.589,54.245-1.768,81.471c-0.791,18.518-1.052,37.297-1.305,55.461
			c-0.127,8.927-0.246,17.858-0.433,26.8c-0.045,2.066-0.716,6.693-1.499,12.056c-3.453,23.709-5.937,45.341,1.462,49.513
			c0.731,5.023,21.8,8.025,29.72,8.193c30.943,0.66,62.55,5.064,93.12,9.319c14.043,1.954,28.564,3.979,42.794,5.605
			c45.337,5.172,91.211,12.261,135.57,19.115l15.818,2.443c16.251,2.502,32.554,4.844,48.85,7.186
			c32.591,4.687,66.294,9.531,99.131,15.639c4.945,0.921,9.897,1.902,14.864,2.883c17.772,3.513,36.149,7.148,54.518,8.04
			c0.47,0.026,0.962,0.037,1.462,0.037c4.488,0,14.732,3.934,24.11,2.83c16.753-0.446,19.834-2.213,19.794-10.431
			c0.001-0.013,0.016-0.025,0.017-0.038c0-0.012-0.015-0.024-0.015-0.036c-0.031-5.331-0.574-10.971-1.09-16.13
			c-0.462-4.643-0.865-8.647-0.731-11.232l-0.037-0.004c0.045-0.981,0.127-2.629,0.209-4.311c0.104-2.163,0.179-3.718,0.194-4.836
			l0.06-0.813l-0.015-0.004c2.901-50.364,5.064-101.585,7.152-151.128l0.738-17.414c0.85-20.155,2.648-40.981,4.385-61.118
			c2.797-32.364,5.683-65.831,4.848-98.143c-0.075-2.998,0.142-5.217,0.313-6.999
			C1042.35,293.716,1042.141,291.702,1034.087,287.198z M1011.325,555.617c-0.641,17.884-1.589,36.081-2.506,53.679
			c-0.955,18.324-1.947,37.271-2.588,55.894c-0.006,0.16-0.02,0.395-0.027,0.567c-3.593-0.64-6.601-1.132-7.796-1.387
			c-0.261-0.227-0.716-0.369-1.514-0.481l-3.035-0.261c-0.433-0.026-0.91-0.056-1.424-0.089c-0.761-0.045-1.454-0.09-2.088-0.127
			c-31.629-1.984-63.989-7.551-95.283-12.936c-18.466-3.177-37.558-6.462-56.218-8.957c-42.026-5.623-84.513-12.473-125.592-19.1
			l-28.653-4.609c-24.305-3.882-49.103-7.081-73.088-10.173c-23.947-3.084-48.708-6.276-72.961-10.154
			c-3.818-0.608-8.04-1.413-12.507-2.263c-15.797-3.01-48.293-7.958-67.021-5.958c2.839-11.272,3.931-30.245,3.301-57.364
			l-0.037-1.704c-0.447-27.102,0.626-51.717,1.76-77.775l0.254-5.731c0.709-16.266,0.574-32.934,0.44-49.055
			c-0.179-22.102-0.365-44.953,1.626-67.051c1.589-17.653,1.596-17.66,19.152-17.064l1.372,0.048
			c20.621,0.675,41.123,0.067,58.47-0.623c26.237-1.052,52.467-2.312,78.689-3.572c56.964-2.737,115.867-5.567,173.86-6.086
			l6.474-0.06c36.611-0.332,74.475-0.671,111.668,0.082c12.365,0.25,25.118,1.048,37.446,1.816
			c23.657,1.48,48.089,3.009,71.813,0.861C1017.65,389.838,1014.204,475.257,1011.325,555.617z"/>
		<path fill="#1A3047" d="M741.467,527.996c15.177-2.099,24.171-5.843,26.714-11.124c0.85-1.749,1.41-4.59-0.723-8.189
			c-3.102-5.276-14.573-2.614-30.421,1.738c-4.922,1.354-9.576,2.629-11.545,2.685c-18.802,0.615-36.745-9.602-46.284-25.816
			c-8.659-14.7-8.629-31.555,0.082-46.239c8.099-13.652,38.289-27.65,55.8-22.642c8.659,2.491,12.91,9.263,12.641,20.133
			c-0.127,5.176-5.392,16.948-12.41,22.601c-2.849,2.297-5.534,3.229-7.98,2.752c-3.841-0.738-4.475-1.809-4.572-2.118
			c-0.559-1.73,3.229-5.761,6.004-8.707c4.139-4.4,8.047-8.558,7.092-12.492c-0.664-2.711-2.886-4.083-5.884-3.677
			c-8.189,1.104-23.202,15.58-22.888,26.599c0.157,5.4,3.729,12.097,19.853,13.335c16.072,1.167,29.131-7.663,34.224-23.176
			c5.042-15.382,1.313-36.469-15.595-47.011c-14.207-8.864-31.308-9.017-48.156-0.403c-17.228,8.804-30.891,25.13-36.156,42.186
			c-0.843,0.004-1.208,0.183-1.462,1.82l-0.104-0.007l-0.261,3.923c-0.045,0.608-0.09,1.275-0.142,2.01
			c-0.097,1.402-0.179,2.644-0.254,3.748l-0.455,6.645l0.186,0.015c0.015,0.291,0.037,0.537,0.067,0.746
			c0.328,17.686,6.623,32.681,18.421,43.681c12.522,11.683,30.406,17.955,50.386,17.955
			C732.159,528.966,736.776,528.645,741.467,527.996z"/>
		<path fill="#1A3047" d="M623.93,448.17c-1.26-0.045-3.147,0.045-6.183,0.179c-0.149,0.007-0.291,0.019-0.433,0.037h-0.007
			c-0.015,0-0.022,0-0.03,0v0.004c-0.015,0.004-0.03,0.004-0.037,0.007l-0.753,0.022c-15.393,0.455-31.308,0.925-46.56,3.158
			c-11.276,1.656-17.28,4.467-17.832,8.357c-0.574,4.057,4.676,6.943,8.674,8.763c3.102,1.413,6.869,1.954,10.978,1.954
			c7.182,0,15.416-1.652,23.008-3.173c5.176-1.04,10.068-2.021,13.737-2.263c1.231-0.089,2.864,0.026,4.631,0.142
			c4.497,0.291,9.561,0.608,12.477-1.458c2.692-1.909,6.928-7.715,5.422-12.015c-0.604-1.723-2.282-3.703-6.764-3.703
			c-0.007,0-0.015,0-0.015,0c-0.09-0.004-0.179-0.007-0.268-0.011v-0.004L623.93,448.17z"/>
		<path fill="#1A3047" d="M726.335,342.938c-0.075-0.071-0.149-0.138-0.224-0.205c0-0.004-0.008-0.007-0.008-0.007
			c-0.075-0.071-0.149-0.138-0.224-0.209l-0.582-0.541l-0.022,0.03c-0.097-0.075-0.201-0.145-0.306-0.209
			c-2.573-1.835-4.706-1.484-6.115-0.809c-6.861,3.274-8.8,21.397-7.987,33.218c0.485,7.066,2.334,19.249,9.233,21.445
			c0.589,0.186,1.335,0.347,2.17,0.347c1.857,0,4.124-0.802,5.944-3.923c5.623-9.621,3.401-37.845-0.612-46.966
			c0.037-0.571-0.276-1.1-0.679-1.566l0.022-0.034L726.335,342.938z"/>
		<path fill="#1A3047" d="M707.332,550.236c-2.558,0.179-7.085,1.902-8.666,11.426c-1.865,11.25,1.283,31.018,8.688,34.139
			c0.53,0.22,1.231,0.421,2.051,0.421c1.648,0,3.789-0.802,5.996-3.807c4.117-5.597,2.901-28.937-1.969-37.838
			C711.359,550.791,708.928,550.105,707.332,550.236z"/>
		<path fill="#1A3047" d="M842.91,466.431c3.811-0.768,7.413-1.495,10.464-1.898c0.544-0.075,1.313-0.145,2.237-0.235
			c8.86-0.839,18.503-2.189,20.748-7.641c1.052-2.554,0.239-5.459-2.409-8.629c-3.535-4.24-18.846-3.539-54.525,2.476
			c-1.999,0.339-3.617,0.612-4.713,0.779c-10.456,1.615-17.049,3.427-17.601,7.465c-0.395,2.894,2.364,5.515,8.95,8.506
			c3.826,1.741,8.345,2.387,13.133,2.387C826.995,469.641,835.512,467.922,842.91,466.431z"/>
		<path fill="#1A3047" d="M639.263,380.083c-3.707-1.719-6.168-0.887-7.592,0.116c-5.303,3.725-3.162,11.903,1.059,17.921
			c3.244,4.62,8.069,8.528,12.537,8.528c1.432,0,2.827-0.399,4.124-1.309c2.252-1.581,3.296-4.091,3.021-7.257
			C651.837,391.598,645.573,383.017,639.263,380.083z"/>
		<path fill="#1A3047" d="M779.413,409.855c0.776,1.984,2.745,2.648,5.116,2.648c2.409,0,5.235-0.694,7.615-1.391
			c9.509-2.782,18.973-18.663,20.286-25.875c0.38-2.099,0.149-3.688-0.686-4.74c0.022-0.313-0.067-0.668-0.283-1.096
			c-0.582-1.148-1.014-1.391-2.536-0.791l-0.03-0.06l-2.252,1.126c-0.283,0.138-0.582,0.291-0.902,0.451c0,0,0,0-0.007,0
			c-0.201,0.104-0.403,0.205-0.589,0.298l-1.536,0.768l0.022,0.052c-0.47,0.291-0.798,0.567-0.984,0.865
			C794.553,387.88,776.855,403.348,779.413,409.855z"/>
		<path fill="#1A3047" d="M649.891,541.268c1.969-4.773,1.029-7.484-0.104-8.916c-1.656-2.088-4.661-2.782-8.927-2.088
			c-5.959,0.977-18.958,14.759-17.906,22.277c0.082,0.604,0.276,1.313,0.671,1.999c-0.082,0.011-0.164,0.019-0.246,0.03
			l-1.954,0.227l0.216,1.894c0.119,1.063,0.351,1.391,2.103,1.518l0.022,0.16c0.104-0.015,4.102-0.477,6.735-0.787
			c0.656-0.075,1.357-0.157,2.118-0.242c0.007-0.004,0.022-0.004,0.037-0.004l2.021-0.239l-0.03-0.22
			C640.598,554.901,647.296,547.529,649.891,541.268z"/>
		<path fill="#1A3047" d="M792.763,551.843c2.372,1.954,4.87,2.957,7.227,2.957c1.32,0,2.603-0.317,3.789-0.955
			c3.475-1.879,4.721-5.396,3.416-9.647c-1.857-6.056-8.785-13.025-14.476-12.417c-4.505,0.365-6.011,3.065-6.503,4.639
			C784.671,541.327,788.415,548.248,792.763,551.843z"/>
		<path fill="#1A3047" d="M1127.58,838.138c0,0-13.692-17.894-46.15-26.203c-12.756-3.266-27.52-1.41-42.212,3.11
			c-30.018,9.214-50.766,31.144-62.893,47.921c-14.081,19.488-45.15,82.407-34.94,115.322c2.879,9.289,8.778,15.583,17.526,18.716
			c8.972,3.214,18.906,4.631,29.347,4.631c42.383,0,93.023-23.37,121.251-44.52c1.685-1.257,3.55-2.987,5.534-4.814
			c2.327-2.155,22.299-24.41,24.29-27.18c1.782-2.465,3.617-5.016,4.84-7.73C1157.456,888.002,1146.374,858.215,1127.58,838.138z
			 M1066.116,963.689l-3.445,1.651c-19.077,8.448-39.81,14.542-59.773,17.147l-3.572,0.492c-12.664,1.786-33.867,4.766-40.43-6.399
			c-5.951-10.109,2.297-42.604,6.966-55.875c9.255-26.256,19.726-45.236,32.942-59.731c10.352-11.351,18.481-15.911,28.892-15.911
			c6.518,0,13.932,1.786,23.336,4.814c15.96,5.139,62.356,40.508,67.278,66.641c1.372,7.309-0.611,13.085-6.13,17.694
			c-0.052,0.045-0.112,0.093-0.164,0.134l-0.075,0.063c0,0.004,0,0.004,0,0.004l-0.671,0.604
			C1098.99,945.971,1083.271,955.743,1066.116,963.689z M1080.357,827.881c-1.723,1.238-5.154,3.825-6.527,5.059
			c-2.745,2.457-4.907,4.4-8.025,4.799c-3.192,0.399-9.472-2.148-15.013-4.4c-2.282-0.929-4.512-1.835-6.593-2.58
			c10.665-3.132,21.531-4.143,31.666-2.961L1080.357,827.881z M1131.19,913.677c-9.33-21.486-30.101-53.527-48.754-66.675
			c3.722-5.262,8.151-7.924,13.178-7.924c0.089,0,0.186,0,0.283,0c10.053,0.201,21.427,10.971,27.46,21.512
			C1129.996,872.173,1136.679,891.124,1131.19,913.677z"/>
	</g>
	<path fill="#1A3047" d="M722.927,274.441c0.403,0.015,0.805,0.022,1.208,0.022c10.307,0,19.614-5.213,25.066-14.114
		c5.049-8.234,5.78-18.071,1.872-25.055c-3.535-6.313-10.478-9.789-19.555-9.789c-17.146,0-31.271,16.601-31.547,30.35
		C699.755,266.916,708.339,273.867,722.927,274.441z M719.839,248.566c5.511-6.414,13.551-6.735,16.676-4.139
		c2.566,2.129,1.827,6.078-2.006,10.833c-3.117,3.859-8.345,4.945-12.224,4.314c-2.692-0.447-4.669-1.723-5.28-3.405
		C716.304,254.226,717.311,251.526,719.839,248.566z"/>
</g>
</svg>
